<svg xmlns="http://www.w3.org/2000/svg" viewBox="0 0 900 520" width="900" height="520">
  <defs>
    <linearGradient id="headerG" x1="0" y1="0" x2="0" y2="1">
      <stop offset="0%" stop-color="#1a5276"/>
      <stop offset="100%" stop-color="#1f618d"/>
    </linearGradient>
  </defs>

  <!-- Window chrome -->
  <rect width="900" height="520" rx="10" fill="#f0f0f0"/>
  <rect width="900" height="42" rx="10" fill="#2c3e50"/>
  <rect y="32" width="900" height="10" fill="#2c3e50"/>
  <circle cx="20" cy="21" r="7" fill="#e74c3c"/>
  <circle cx="42" cy="21" r="7" fill="#f39c12"/>
  <circle cx="64" cy="21" r="7" fill="#2ecc71"/>
  <text x="450" y="26" font-family="Arial" font-size="13" fill="#aaa" text-anchor="middle">Odoo 19 — Hospital Management</text>

  <!-- Top app bar -->
  <rect y="42" width="900" height="48" fill="url(#headerG)"/>
  <text x="24" y="72" font-family="Arial" font-size="15" font-weight="bold" fill="#ffffff">🏥 Hospital</text>
  <text x="110" y="72" font-family="Arial" font-size="14" fill="#d6eaf8">Patients</text>
  <text x="185" y="72" font-family="Arial" font-size="14" fill="#d6eaf8">Appointments</text>
  <text x="295" y="72" font-family="Arial" font-size="14" fill="#d6eaf8">Lab Tests</text>
  <text x="375" y="72" font-family="Arial" font-size="14" fill="#d6eaf8">Pharmacy</text>

  <!-- Breadcrumb + title bar -->
  <rect y="90" width="900" height="50" fill="#ffffff"/>
  <text x="24" y="122" font-family="Arial" font-size="18" font-weight="bold" fill="#212529">Patients</text>
  <rect x="760" y="103" width="116" height="28" rx="5" fill="#1a5276"/>
  <text x="818" y="122" font-family="Arial" font-size="13" fill="#ffffff" text-anchor="middle">+ New Patient</text>

  <!-- Search bar -->
  <rect y="140" width="900" height="44" fill="#f8f9fa"/>
  <rect x="24" y="152" width="260" height="26" rx="5" fill="#ffffff" stroke="#dee2e6" stroke-width="1"/>
  <text x="38" y="169" font-family="Arial" font-size="12" fill="#6c757d">🔍  Search patients…</text>
  <rect x="310" y="154" width="80" height="22" rx="4" fill="#e9ecef"/>
  <text x="350" y="169" font-family="Arial" font-size="11" fill="#495057" text-anchor="middle">Active ▾</text>
  <rect x="400" y="154" width="80" height="22" rx="4" fill="#e9ecef"/>
  <text x="440" y="169" font-family="Arial" font-size="11" fill="#495057" text-anchor="middle">Gender ▾</text>

  <!-- Table header -->
  <rect y="184" width="900" height="34" fill="#f1f3f4"/>
  <line x1="0" y1="218" x2="900" y2="218" stroke="#dee2e6" stroke-width="1"/>
  <text x="50"  y="205" font-family="Arial" font-size="12" font-weight="bold" fill="#6c757d">Ref.</text>
  <text x="110" y="205" font-family="Arial" font-size="12" font-weight="bold" fill="#6c757d">Full Name</text>
  <text x="280" y="205" font-family="Arial" font-size="12" font-weight="bold" fill="#6c757d">Gender</text>
  <text x="360" y="205" font-family="Arial" font-size="12" font-weight="bold" fill="#6c757d">Blood Group</text>
  <text x="460" y="205" font-family="Arial" font-size="12" font-weight="bold" fill="#6c757d">Phone</text>
  <text x="580" y="205" font-family="Arial" font-size="12" font-weight="bold" fill="#6c757d">Tags</text>
  <text x="760" y="205" font-family="Arial" font-size="12" font-weight="bold" fill="#6c757d">Status</text>

  <!-- Row 1 (active - green tint) -->
  <rect y="218" width="900" height="44" fill="#f0fff4"/>
  <circle cx="30" cy="240" r="12" fill="#1a5276"/>
  <text x="30" y="244" font-family="Arial" font-size="11" fill="#fff" text-anchor="middle">AH</text>
  <text x="50"  y="244" font-family="Arial" font-size="13" fill="#495057">HP/2026/0001</text>
  <text x="110" y="244" font-family="Arial" font-size="13" font-weight="bold" fill="#212529">Ahmed Hassan</text>
  <text x="280" y="244" font-family="Arial" font-size="13" fill="#495057">Male</text>
  <text x="360" y="244" font-family="Arial" font-size="13" fill="#495057">O+</text>
  <text x="460" y="244" font-family="Arial" font-size="13" fill="#495057">+966 50 123 4567</text>
  <rect x="580" y="230" width="60" height="20" rx="10" fill="#dc3545"/>
  <text x="610" y="244" font-family="Arial" font-size="11" fill="#fff" text-anchor="middle">Urgent</text>
  <rect x="648" y="230" width="74" height="20" rx="10" fill="#6f42c1"/>
  <text x="685" y="244" font-family="Arial" font-size="11" fill="#fff" text-anchor="middle">Diabetic</text>
  <rect x="760" y="231" width="60" height="18" rx="9" fill="#198754"/>
  <text x="790" y="243" font-family="Arial" font-size="11" fill="#fff" text-anchor="middle">Active</text>

  <!-- Row 2 -->
  <rect y="262" width="900" height="44" fill="#ffffff"/>
  <circle cx="30" cy="284" r="12" fill="#6c757d"/>
  <text x="30" y="288" font-family="Arial" font-size="11" fill="#fff" text-anchor="middle">SF</text>
  <text x="50"  y="288" font-family="Arial" font-size="13" fill="#495057">HP/2026/0002</text>
  <text x="110" y="288" font-family="Arial" font-size="13" font-weight="bold" fill="#212529">Sara Fatima</text>
  <text x="280" y="288" font-family="Arial" font-size="13" fill="#495057">Female</text>
  <text x="360" y="288" font-family="Arial" font-size="13" fill="#495057">A+</text>
  <text x="460" y="288" font-family="Arial" font-size="13" fill="#495057">+966 55 987 6543</text>
  <rect x="580" y="274" width="66" height="20" rx="10" fill="#0d6efd"/>
  <text x="613" y="288" font-family="Arial" font-size="11" fill="#fff" text-anchor="middle">Elderly</text>
  <rect x="760" y="275" width="60" height="18" rx="9" fill="#198754"/>
  <text x="790" y="287" font-family="Arial" font-size="11" fill="#fff" text-anchor="middle">Active</text>

  <!-- Row 3 (active) -->
  <rect y="306" width="900" height="44" fill="#f0fff4"/>
  <circle cx="30" cy="328" r="12" fill="#0d6efd"/>
  <text x="30" y="332" font-family="Arial" font-size="11" fill="#fff" text-anchor="middle">KM</text>
  <text x="50"  y="332" font-family="Arial" font-size="13" fill="#495057">HP/2026/0003</text>
  <text x="110" y="332" font-family="Arial" font-size="13" font-weight="bold" fill="#212529">Khalid Mohammed</text>
  <text x="280" y="332" font-family="Arial" font-size="13" fill="#495057">Male</text>
  <text x="360" y="332" font-family="Arial" font-size="13" fill="#495057">B-</text>
  <text x="460" y="332" font-family="Arial" font-size="13" fill="#495057">+971 50 456 7890</text>
  <rect x="580" y="318" width="90" height="20" rx="10" fill="#fd7e14"/>
  <text x="625" y="332" font-family="Arial" font-size="11" fill="#fff" text-anchor="middle">Post-Surgery</text>
  <rect x="760" y="319" width="60" height="18" rx="9" fill="#198754"/>
  <text x="790" y="331" font-family="Arial" font-size="11" fill="#fff" text-anchor="middle">Active</text>

  <!-- Row 4 (discharged - muted) -->
  <rect y="350" width="900" height="44" fill="#f8f9fa"/>
  <circle cx="30" cy="372" r="12" fill="#adb5bd"/>
  <text x="30" y="376" font-family="Arial" font-size="11" fill="#fff" text-anchor="middle">LA</text>
  <text x="50"  y="376" font-family="Arial" font-size="13" fill="#6c757d">HP/2026/0004</text>
  <text x="110" y="376" font-family="Arial" font-size="13" font-weight="bold" fill="#6c757d">Layla Al-Amri</text>
  <text x="280" y="376" font-family="Arial" font-size="13" fill="#6c757d">Female</text>
  <text x="360" y="376" font-family="Arial" font-size="13" fill="#6c757d">AB+</text>
  <text x="460" y="376" font-family="Arial" font-size="13" fill="#6c757d">+966 53 321 0987</text>
  <rect x="760" y="363" width="80" height="18" rx="9" fill="#6c757d"/>
  <text x="800" y="375" font-family="Arial" font-size="11" fill="#fff" text-anchor="middle">Discharged</text>

  <!-- Row 5 -->
  <rect y="394" width="900" height="44" fill="#ffffff"/>
  <circle cx="30" cy="416" r="12" fill="#198754"/>
  <text x="30" y="420" font-family="Arial" font-size="11" fill="#fff" text-anchor="middle">OA</text>
  <text x="50"  y="420" font-family="Arial" font-size="13" fill="#495057">HP/2026/0005</text>
  <text x="110" y="420" font-family="Arial" font-size="13" font-weight="bold" fill="#212529">Omar Abdullah</text>
  <text x="280" y="420" font-family="Arial" font-size="13" fill="#495057">Male</text>
  <text x="360" y="420" font-family="Arial" font-size="13" fill="#495057">O-</text>
  <text x="460" y="420" font-family="Arial" font-size="13" fill="#495057">+971 52 654 3210</text>
  <rect x="580" y="406" width="68" height="20" rx="10" fill="#20c997"/>
  <text x="614" y="420" font-family="Arial" font-size="11" fill="#fff" text-anchor="middle">Pediatric</text>
  <rect x="760" y="407" width="60" height="18" rx="9" fill="#198754"/>
  <text x="790" y="419" font-family="Arial" font-size="11" fill="#fff" text-anchor="middle">Active</text>

  <!-- Row dividers -->
  <line x1="0" y1="262" x2="900" y2="262" stroke="#dee2e6" stroke-width="1"/>
  <line x1="0" y1="306" x2="900" y2="306" stroke="#dee2e6" stroke-width="1"/>
  <line x1="0" y1="350" x2="900" y2="350" stroke="#dee2e6" stroke-width="1"/>
  <line x1="0" y1="394" x2="900" y2="394" stroke="#dee2e6" stroke-width="1"/>
  <line x1="0" y1="438" x2="900" y2="438" stroke="#dee2e6" stroke-width="1"/>

  <!-- Footer -->
  <rect y="438" width="900" height="82" rx="0" fill="#ffffff"/>
  <rect y="430" width="900" height="8" fill="#f8f9fa"/>
  <text x="24" y="465" font-family="Arial" font-size="13" fill="#6c757d">1-5 / 5  patients</text>
  <rect x="750" y="453" width="28" height="28" rx="5" fill="#e9ecef"/>
  <text x="764" y="471" font-family="Arial" font-size="14" fill="#495057" text-anchor="middle">‹</text>
  <rect x="786" y="453" width="28" height="28" rx="5" fill="#1a5276"/>
  <text x="800" y="471" font-family="Arial" font-size="14" fill="#fff" text-anchor="middle">1</text>
  <rect x="822" y="453" width="28" height="28" rx="5" fill="#e9ecef"/>
  <text x="836" y="471" font-family="Arial" font-size="14" fill="#495057" text-anchor="middle">›</text>
</svg>
